<svg width="32" height="32" viewBox="0 0 32 32" fill="none" xmlns="http://www.w3.org/2000/svg">
<path d="M16.0003 2.66675C14.2494 2.66675 12.5156 3.01162 10.8979 3.68169C9.2802 4.35175 7.81035 5.33388 6.57223 6.57199C4.07175 9.07248 2.66699 12.4639 2.66699 16.0001C2.66699 21.8934 6.49366 26.8934 11.787 28.6667C12.4537 28.7734 12.667 28.3601 12.667 28.0001V25.7467C8.97366 26.5467 8.18699 23.9601 8.18699 23.9601C7.57366 22.4134 6.70699 22.0001 6.70699 22.0001C5.49366 21.1734 6.80033 21.2001 6.80033 21.2001C8.13366 21.2934 8.84033 22.5734 8.84033 22.5734C10.0003 24.6001 11.9603 24.0001 12.7203 23.6801C12.8403 22.8134 13.187 22.2267 13.5603 21.8934C10.6003 21.5601 7.49366 20.4134 7.49366 15.3334C7.49366 13.8534 8.00033 12.6667 8.86699 11.7201C8.73366 11.3867 8.26699 10.0001 9.00033 8.20008C9.00033 8.20008 10.1203 7.84008 12.667 9.56008C13.7203 9.26675 14.867 9.12008 16.0003 9.12008C17.1337 9.12008 18.2803 9.26675 19.3337 9.56008C21.8803 7.84008 23.0003 8.20008 23.0003 8.20008C23.7337 10.0001 23.267 11.3867 23.1337 11.7201C24.0003 12.6667 24.507 13.8534 24.507 15.3334C24.507 20.4267 21.387 21.5467 18.4137 21.8801C18.8937 22.2934 19.3337 23.1067 19.3337 24.3467V28.0001C19.3337 28.3601 19.547 28.7867 20.227 28.6667C25.5203 26.8801 29.3337 21.8934 29.3337 16.0001C29.3337 14.2491 28.9888 12.5153 28.3187 10.8976C27.6487 9.27996 26.6665 7.81011 25.4284 6.57199C24.1903 5.33388 22.7204 4.35175 21.1028 3.68169C19.4851 3.01162 17.7513 2.66675 16.0003 2.66675Z" fill="white"/>
</svg>
